<svg xmlns="http://www.w3.org/2000/svg" width="520" height="320" viewBox="0 0 520 320">
  <defs>
    <linearGradient id="bg" x1="0" y1="0" x2="1" y2="1">
      <stop offset="0" stop-color="#ff5f83"/>
      <stop offset="0.48" stop-color="#ff9a55"/>
      <stop offset="1" stop-color="#ffd98f"/>
    </linearGradient>
    <radialGradient id="sun" cx="72%" cy="18%" r="46%">
      <stop offset="0" stop-color="#fff7c7" stop-opacity="0.95"/>
      <stop offset="0.55" stop-color="#ffd4a8" stop-opacity="0.32"/>
      <stop offset="1" stop-color="#ff6b92" stop-opacity="0"/>
    </radialGradient>
    <linearGradient id="hair" x1="0.12" y1="0" x2="0.86" y2="1">
      <stop offset="0" stop-color="#4b182b"/>
      <stop offset="1" stop-color="#a43b4b"/>
    </linearGradient>
    <linearGradient id="dress" x1="0" y1="0" x2="1" y2="1">
      <stop offset="0" stop-color="#fff4bd"/>
      <stop offset="0.45" stop-color="#ff6f91"/>
      <stop offset="1" stop-color="#c01f59"/>
    </linearGradient>
    <filter id="shadow" x="-30%" y="-30%" width="160%" height="170%">
      <feDropShadow dx="0" dy="12" stdDeviation="15" flood-color="#8a2635" flood-opacity="0.28"/>
    </filter>
  </defs>
  <rect width="520" height="320" rx="42" fill="url(#bg)"/>
  <rect width="520" height="320" rx="42" fill="url(#sun)"/>
  <circle cx="430" cy="54" r="88" fill="#fff4c4" opacity="0.18"/>
  <circle cx="62" cy="250" r="96" fill="#ffffff" opacity="0.10"/>
  <path d="M0 238 C88 205 118 242 204 216 C310 183 380 203 520 155 L520 320 L0 320Z" fill="#fff" opacity="0.12"/>
  <path d="M58 64 L74 95 L108 100 L83 123 L89 157 L58 140 L27 157 L33 123 L8 100 L42 95Z" fill="#fff7cf" opacity="0.82"/>
  <g stroke="#fff7d8" stroke-width="5" stroke-linecap="round" opacity="0.7">
    <path d="M402 225 l24 0"/><path d="M414 213 l0 24"/>
    <path d="M112 42 l16 0"/><path d="M120 34 l0 16"/>
    <path d="M456 132 l18 0"/><path d="M465 123 l0 18"/>
  </g>
  <g filter="url(#shadow)" transform="translate(170 28)">
    <path d="M91 43 C52 52 33 89 37 131 C12 153 13 196 44 214 C58 253 187 254 205 214 C238 193 236 151 211 130 C216 84 183 49 147 43 C132 27 107 27 91 43Z" fill="url(#hair)"/>
    <path d="M75 112 C73 70 104 48 135 51 C166 54 190 80 187 118 C184 158 165 184 132 184 C98 184 77 155 75 112Z" fill="#ffd3bb"/>
    <path d="M74 116 C92 107 114 90 124 64 C140 95 164 108 187 115 C183 78 162 50 129 48 C96 46 75 72 74 116Z" fill="#5d1a31"/>
    <circle cx="105" cy="124" r="5" fill="#431827"/><circle cx="157" cy="124" r="5" fill="#431827"/>
    <path d="M118 151 C127 158 140 158 150 151" fill="none" stroke="#b53a49" stroke-width="5" stroke-linecap="round"/>
    <circle cx="92" cy="141" r="13" fill="#ff8da2" opacity="0.42"/><circle cx="172" cy="141" r="13" fill="#ff8da2" opacity="0.42"/>
    <path d="M69 251 C80 205 99 177 132 177 C166 177 188 205 199 251 Z" fill="url(#dress)"/>
    <path d="M83 217 C112 236 154 237 183 216" fill="none" stroke="#fff1be" stroke-width="7" stroke-linecap="round" opacity="0.65"/>
    <path d="M86 57 L109 19 L132 56 L154 19 L178 57 Z" fill="#fff1a8" stroke="#ffffff" stroke-width="4" stroke-linejoin="round"/>
    <circle cx="109" cy="23" r="6" fill="#ff6f91"/><circle cx="154" cy="23" r="6" fill="#ff6f91"/><circle cx="132" cy="57" r="6" fill="#ff6f91"/>
  </g>
  <path d="M314 246 C354 222 415 226 470 254" fill="none" stroke="#ffffff" stroke-width="11" opacity="0.28" stroke-linecap="round"/>
</svg>
